<svg width="120" height="80" viewBox="0 0 120 80" fill="none" xmlns="http://www.w3.org/2000/svg">
<path d="M1.36336 65.8976V54.4254L0 53.9674H2.3592L6.86422 63.3847L11.6301 53.9674H13.9774L12.614 54.4254V66.1324L13.9774 66.5904H9.98217L11.3455 66.1324V55.2004L6.30702 65.1578L1.65974 55.4352V65.8976L3.02311 66.5904H0.0118578L1.36336 65.8976Z" fill="white"/>
<path d="M16.8701 66.5904L18.0438 65.8976L22.5488 53.9674H23.4024L27.9904 66.0972L29.247 66.5904H25.6786L26.6507 66.1324L25.1451 62.1518H19.7984L18.3757 65.8976L19.2293 66.5904H16.8701ZM22.4302 55.0829L19.8814 61.8465H24.991L22.4302 55.0829Z" fill="white"/>
<path d="M32.9933 54.261C32.5073 54.261 32.0686 54.2962 31.6774 54.3549C31.2862 54.4136 30.9424 54.5428 30.6341 54.7189C30.3259 54.8951 30.0651 55.1534 29.828 55.4704C29.5909 55.7992 29.3893 56.222 29.2233 56.7269L29.5316 53.9674H40.2606L40.5689 56.7269C40.4029 56.2102 40.2013 55.7875 39.9642 55.4704C39.7271 55.1417 39.4663 54.8951 39.1581 54.7189C38.8498 54.5428 38.506 54.4254 38.1267 54.3549C37.7355 54.2962 37.2968 54.261 36.7989 54.261H35.5422V66.1324L36.8819 66.5904H32.9103L34.2737 66.1324V54.261H32.9933Z" fill="white"/>
<path d="M44.493 66.1324V54.4254L43.1296 53.9674H52.0567L52.3649 56.7269C52.1989 56.2102 51.9974 55.7992 51.7721 55.4704C51.5469 55.1534 51.2742 54.8951 50.9778 54.7189C50.6814 54.5428 50.3258 54.4136 49.9464 54.3549C49.567 54.2962 49.1165 54.261 48.6186 54.261H45.7615V60.0499H49.65L50.5629 58.7231V61.7056L49.65 60.3552H45.7615V66.2733H48.9743C49.4722 66.2733 49.9108 66.2381 50.3021 66.1794C50.6933 66.1207 51.0371 65.9915 51.3335 65.8154C51.6417 65.6392 51.9025 65.3809 52.1396 65.0639C52.3768 64.7468 52.5783 64.3241 52.7443 63.8075L52.436 66.5669H43.1296L44.493 66.1324Z" fill="white"/>
<path d="M56.9885 66.1324V54.4254L55.6251 53.9674H62.6672C63.1414 53.9674 63.5919 54.0614 63.995 54.2375C64.4099 54.4136 64.7656 54.6602 65.0738 54.9655C65.382 55.2708 65.6191 55.6231 65.8088 56.0341C65.9866 56.445 66.0815 56.8795 66.0815 57.3492C66.0815 57.8189 65.9866 58.2651 65.8088 58.6643C65.631 59.0753 65.382 59.4276 65.0738 59.7329C64.7656 60.0382 64.4099 60.273 63.995 60.4492C63.58 60.6253 63.1414 60.7075 62.6672 60.7075H61.4579C62.2878 61.0011 62.9398 61.5177 63.4259 62.2575L65.8918 66.062L67.2552 66.5786H63.7934L64.5047 66.2616L61.3749 61.412C61.2208 61.1772 61.0548 61.001 60.9007 60.8836C60.7466 60.7662 60.5095 60.7075 60.2013 60.7075H58.2451V66.1207L59.5848 66.5786H55.6132L56.9885 66.1324ZM64.8248 57.3609C64.8248 56.9147 64.7537 56.492 64.5996 56.1163C64.4573 55.7288 64.2439 55.4117 63.9712 55.1299C63.6986 54.8599 63.3785 54.6367 62.9991 54.4958C62.6197 54.3432 62.2048 54.2727 61.7543 54.2727H58.2688V60.4492H61.7543C62.2048 60.4492 62.6197 60.3787 62.9991 60.2261C63.3785 60.0734 63.6986 59.862 63.9712 59.592C64.2439 59.3219 64.4573 58.9931 64.5996 58.6174C64.7418 58.2181 64.8248 57.8072 64.8248 57.3609Z" fill="white"/>
<path d="M69.9937 66.5904L71.1674 65.8976L75.6724 53.9674H76.526L81.114 66.0972L82.3707 66.5904H78.8022L79.7744 66.1324L78.2569 62.1518H72.9102L71.4875 65.8976L72.3411 66.5904H69.9937ZM75.5657 55.0829L73.0168 61.8465H78.1265L75.5657 55.0829Z" fill="white"/>
<path d="M93.1234 63.6431C93.1234 63.279 93.0168 62.9503 92.8034 62.6802C92.59 62.4101 92.3054 62.1635 91.9498 61.9522C91.5941 61.7291 91.191 61.5294 90.7405 61.3416C90.29 61.1537 89.8277 60.9541 89.3535 60.7662C88.8792 60.5783 88.4169 60.3552 87.9664 60.1321C87.5159 59.909 87.1128 59.6507 86.7571 59.3571C86.4015 59.0636 86.117 58.7348 85.9036 58.3473C85.6902 57.9715 85.5835 57.5136 85.5835 56.9969C85.5835 56.0106 85.8917 55.2473 86.52 54.6954C87.1484 54.1436 88.1205 53.8852 89.4483 53.8852C90.0648 53.8852 90.5983 53.9205 91.0843 54.0027C91.5585 54.0849 91.9616 54.167 92.2936 54.2727C92.6848 54.3901 93.0286 54.5193 93.325 54.6602L92.6966 57.267C92.6018 56.3511 92.2699 55.5996 91.6771 55.036C91.0843 54.4724 90.3019 54.1905 89.3179 54.1905C88.3102 54.1905 87.5514 54.4019 87.0535 54.8246C86.5556 55.2473 86.3066 55.811 86.3066 56.5155C86.3066 57.0556 86.4963 57.5019 86.8638 57.8776C87.2314 58.2416 87.7056 58.5821 88.2628 58.864C88.82 59.1458 89.4364 59.4276 90.0885 59.6742C90.7405 59.9208 91.357 60.2026 91.9142 60.5079C92.4714 60.8132 92.9456 61.1654 93.3131 61.5647C93.6925 61.9639 93.8703 62.4571 93.8703 63.0442C93.8703 64.2067 93.491 65.0991 92.7441 65.7332C91.9972 66.3555 90.9658 66.6608 89.6736 66.6608C89.0689 66.6608 88.4999 66.6138 87.9664 66.5316C87.4329 66.4494 86.9587 66.3555 86.5675 66.2498C86.0932 66.1324 85.6546 66.0033 85.2397 65.8623L85.868 63.2673C85.9273 63.7253 86.0577 64.148 86.2711 64.5237C86.4845 64.8995 86.7571 65.2165 87.0891 65.4866C87.4329 65.7567 87.8123 65.968 88.2509 66.1207C88.6895 66.2733 89.1519 66.3438 89.638 66.3438C89.8988 66.3438 90.2189 66.3203 90.6101 66.2616C91.0013 66.2029 91.3807 66.0854 91.7482 65.8976C92.1157 65.7097 92.4358 65.4279 92.6966 65.0756C92.993 64.7351 93.1234 64.2537 93.1234 63.6431Z" fill="white"/>
<path d="M104.825 63.6431C104.825 63.279 104.718 62.9503 104.505 62.6802C104.291 62.4101 104.007 62.1635 103.651 61.9522C103.295 61.7291 102.892 61.5294 102.442 61.3416C101.991 61.1537 101.529 60.9541 101.055 60.7662C100.58 60.5783 100.118 60.3552 99.6676 60.1321C99.2171 59.909 98.814 59.6507 98.4583 59.3571C98.1027 59.0636 97.8181 58.7348 97.6047 58.3473C97.3913 57.9715 97.2847 57.5136 97.2847 56.9969C97.2847 56.0106 97.5929 55.2473 98.2212 54.6954C98.8496 54.1436 99.8217 53.8852 101.149 53.8852C101.766 53.8852 102.299 53.9205 102.786 54.0027C103.26 54.0849 103.663 54.167 103.995 54.2727C104.386 54.3901 104.73 54.5193 105.026 54.6602L104.398 57.267C104.303 56.3511 103.971 55.5996 103.378 55.036C102.786 54.4724 102.003 54.1905 101.019 54.1905C100.011 54.1905 99.2526 54.4019 98.7547 54.8246C98.2568 55.2473 98.0078 55.811 98.0078 56.5155C98.0078 57.0556 98.1975 57.5019 98.565 57.8776C98.9325 58.2416 99.4068 58.5821 99.964 58.864C100.521 59.1458 101.138 59.4276 101.79 59.6742C102.442 59.9208 103.058 60.2026 103.615 60.5079C104.173 60.8132 104.647 61.1654 105.014 61.5647C105.394 61.9639 105.572 62.4571 105.572 63.0442C105.572 64.2067 105.192 65.0991 104.445 65.7332C103.698 66.3555 102.667 66.6608 101.375 66.6608C100.77 66.6608 100.201 66.6138 99.6676 66.5316C99.1341 66.4494 98.6599 66.3555 98.2687 66.2498C97.7944 66.1324 97.3558 66.0033 96.9408 65.8623L97.5692 63.2673C97.6284 63.7253 97.7589 64.148 97.9723 64.5237C98.1857 64.8995 98.4583 65.2165 98.7903 65.4866C99.1341 65.7567 99.5135 65.968 99.9521 66.1207C100.391 66.2733 100.853 66.3438 101.339 66.3438C101.6 66.3438 101.92 66.3203 102.311 66.2616C102.703 66.2029 103.082 66.0854 103.449 65.8976C103.817 65.7097 104.137 65.4279 104.398 65.0756C104.694 64.7351 104.825 64.2537 104.825 63.6431Z" fill="white"/>
<path d="M114.214 66.7078C113.42 66.7078 112.673 66.5434 111.985 66.2029C111.286 65.8623 110.681 65.4044 110.16 64.829C109.638 64.2419 109.223 63.5726 108.927 62.7976C108.63 62.0226 108.476 61.1889 108.476 60.3082C108.476 59.4276 108.63 58.5939 108.927 57.8072C109.223 57.0322 109.638 56.3511 110.16 55.764C110.681 55.1769 111.286 54.7189 111.985 54.3902C112.685 54.0496 113.42 53.8852 114.214 53.8852C115.008 53.8852 115.755 54.0496 116.443 54.3902C117.142 54.7307 117.747 55.1886 118.269 55.764C118.79 56.3511 119.205 57.0322 119.501 57.8072C119.798 58.5821 119.952 59.4158 119.952 60.3082C119.952 61.1889 119.798 62.0226 119.501 62.7976C119.205 63.5726 118.79 64.2536 118.269 64.829C117.747 65.4161 117.142 65.8741 116.443 66.2029C115.755 66.5434 115.008 66.7078 114.214 66.7078ZM114.214 54.1788C113.598 54.1788 113.029 54.308 112.483 54.578C111.938 54.8364 111.464 55.2238 111.061 55.7405C110.657 56.2572 110.326 56.8913 110.088 57.6428C109.851 58.406 109.733 59.2867 109.733 60.2965C109.733 61.2946 109.851 62.1753 110.088 62.9385C110.326 63.7018 110.646 64.3359 111.061 64.8525C111.475 65.3692 111.95 65.7449 112.483 66.015C113.029 66.2733 113.609 66.4142 114.214 66.4142C114.831 66.4142 115.4 66.2851 115.945 66.015C116.49 65.7567 116.964 65.3692 117.368 64.8525C117.771 64.3359 118.103 63.7018 118.34 62.9385C118.577 62.1753 118.695 61.2946 118.695 60.2965C118.695 59.2867 118.577 58.406 118.34 57.6428C118.103 56.8795 117.782 56.2454 117.368 55.7405C116.953 55.2356 116.478 54.8481 115.945 54.578C115.411 54.308 114.831 54.1788 114.214 54.1788Z" fill="white"/>
<path d="M47.4212 10.8616H43.1652V28.1579L43.7342 27.8174C43.8884 27.7235 44.0425 27.6413 44.1847 27.5591V13.4449L51.2149 24.3769C52.4953 23.8955 53.7875 23.4493 55.0916 23.05L47.4212 10.8616ZM66.5794 21.8758L61.0904 32.5965L56.3364 25.0462C55.0798 25.5042 53.8349 26.0208 52.6138 26.5492L58.8734 36.3071H60.2961L67.7886 21.5823C67.3856 21.6762 66.9825 21.7701 66.5794 21.8758ZM72.2107 10.8616L67.4804 20.1145C67.8716 20.044 68.251 19.9853 68.6422 19.9266L72.2107 12.9282V19.5039C73.6807 19.3512 75.1508 19.2456 76.6208 19.1986V10.8616H72.2107ZM72.2107 20.7368V36.3188H76.6208V20.1497C75.1508 20.2906 73.6689 20.502 72.2107 20.7368ZM43.1652 31.9272V36.3071H44.1847V31.2109L43.1652 31.9272Z" fill="white"/>
<path d="M76.5497 47.1687H43.2482C39.3003 47.1687 36.0875 43.9865 36.0875 40.0763V7.09233C36.0875 3.18215 39.3003 0 43.2482 0H76.5497C80.4975 0 83.7103 3.18215 83.7103 7.09233V40.0763C83.7103 43.9865 80.4975 47.1687 76.5497 47.1687ZM43.2482 0.95112C39.822 0.95112 37.036 3.71055 37.036 7.10406V40.0881C37.036 43.4816 39.822 46.241 43.2482 46.241H76.5497C79.9759 46.241 82.7619 43.4816 82.7619 40.0881V7.10406C82.7619 3.71055 79.9759 0.95112 76.5497 0.95112H43.2482Z" fill="white"/>
<path d="M119.49 71.5221H0.308264V71.9918H119.49V71.5221Z" fill="white"/>
<path d="M3.68701 79.7652C3.41434 79.6125 3.20094 79.4011 3.04682 79.1311C2.8927 78.861 2.80972 78.5557 2.80972 78.2152C2.80972 77.8746 2.8927 77.5811 3.04682 77.311C3.20094 77.041 3.41434 76.8296 3.68701 76.6887C3.95968 76.536 4.26792 76.4656 4.61172 76.4656C4.9081 76.4656 5.18078 76.5243 5.41788 76.6417C5.65499 76.7591 5.84468 76.9235 5.97508 77.1466L5.61942 77.3815C5.50087 77.2054 5.35861 77.0879 5.18078 76.994C5.00295 76.9118 4.81326 76.8648 4.59986 76.8648C4.3509 76.8648 4.12565 76.9235 3.92411 77.0292C3.72257 77.1349 3.56846 77.2993 3.44991 77.5107C3.33135 77.722 3.28393 77.9568 3.28393 78.2152C3.28393 78.4852 3.34321 78.7201 3.44991 78.9197C3.56846 79.1193 3.72257 79.2837 3.92411 79.3894C4.12565 79.5068 4.3509 79.5538 4.59986 79.5538C4.81326 79.5538 5.00295 79.5068 5.18078 79.4246C5.35861 79.3424 5.50087 79.2133 5.61942 79.0489L5.97508 79.2837C5.83282 79.5068 5.65499 79.6712 5.40603 79.7887C5.16892 79.9061 4.89625 79.9648 4.59986 79.9648C4.26792 79.9883 3.95968 79.9061 3.68701 79.7652Z" fill="white"/>
<path d="M11.2151 78.3678H8.28687C8.31058 78.7318 8.45285 79.0137 8.70181 79.2368C8.95077 79.4599 9.27086 79.5656 9.66209 79.5656C9.87548 79.5656 10.077 79.5303 10.2549 79.4481C10.4327 79.3659 10.5987 79.2602 10.7291 79.1076L10.9899 79.4129C10.8358 79.6008 10.6461 79.7417 10.409 79.8356C10.1719 79.9296 9.9229 79.9765 9.63837 79.9765C9.28271 79.9765 8.96262 79.9061 8.68995 79.7534C8.41728 79.6008 8.19202 79.3894 8.0379 79.1193C7.88379 78.8493 7.8008 78.544 7.8008 78.2152C7.8008 77.8864 7.87194 77.5811 8.02606 77.311C8.16832 77.041 8.38171 76.8296 8.64253 76.6887C8.90334 76.536 9.18787 76.4656 9.51982 76.4656C9.85177 76.4656 10.1363 76.536 10.3853 76.6887C10.6461 76.8413 10.8476 77.041 10.9899 77.311C11.1321 77.5811 11.2033 77.8747 11.2033 78.2269L11.2151 78.3678ZM8.67809 77.1819C8.45284 77.3932 8.32243 77.675 8.28687 78.0156H10.7646C10.7291 77.675 10.5987 77.3932 10.3734 77.1819C10.1482 76.9705 9.86362 76.8648 9.51982 76.8648C9.18787 76.8648 8.90334 76.9705 8.67809 77.1819Z" fill="white"/>
<path d="M14.5702 76.9118V79.953H14.096V76.9118H12.78V76.5008H15.898V76.9118H14.5702Z" fill="white"/>
<path d="M20.403 78.0038C20.6282 78.1917 20.7468 78.4618 20.7468 78.814C20.7468 79.1781 20.6282 79.4599 20.3793 79.6595C20.1303 79.8591 19.7747 79.953 19.3123 79.953L17.9015 79.9413V76.4773H18.3757V77.6868L19.4072 77.6985C19.8458 77.722 20.1777 77.8159 20.403 78.0038ZM20.0118 79.4129C20.1777 79.2837 20.2607 79.0841 20.2607 78.8258C20.2607 78.5675 20.1777 78.3796 20.0118 78.2622C19.8458 78.1447 19.5968 78.0743 19.2767 78.0743L18.3639 78.0625V79.6008L19.2767 79.6125C19.6087 79.6125 19.8458 79.5421 20.0118 79.4129Z" fill="white"/>
<path d="M29.9347 79.953H29.5079V77.2171L28.0971 79.5303H27.8837L26.4729 77.2053V79.9413H26.0461V76.4773H26.5203L28.0022 78.9667L29.5079 76.4773H29.9347V79.953Z" fill="white"/>
<path d="M35.6608 78.3678H32.7444C32.7681 78.7318 32.9103 79.0137 33.1593 79.2368C33.4083 79.4599 33.7284 79.5656 34.1196 79.5656C34.333 79.5656 34.5345 79.5303 34.7123 79.4481C34.8902 79.3659 35.0562 79.2602 35.1866 79.1076L35.4474 79.4129C35.2933 79.6008 35.1036 79.7417 34.8665 79.8356C34.6294 79.9296 34.3804 79.9765 34.0959 79.9765C33.7402 79.9765 33.4201 79.9061 33.1474 79.7534C32.8748 79.6008 32.6495 79.3894 32.4954 79.1193C32.3413 78.8493 32.2583 78.544 32.2583 78.2152C32.2583 77.8864 32.3294 77.5811 32.4836 77.311C32.6258 77.041 32.8392 76.8296 33.1 76.6887C33.3608 76.536 33.6454 76.4656 33.9773 76.4656C34.3093 76.4656 34.5938 76.536 34.8428 76.6887C35.1036 76.8413 35.3051 77.041 35.4474 77.311C35.5896 77.5811 35.6608 77.8747 35.6608 78.2269V78.3678ZM33.1237 77.1819C32.8985 77.3932 32.7681 77.675 32.7325 78.0156H35.2103C35.1747 77.675 35.0443 77.3932 34.819 77.1819C34.5938 76.9705 34.3093 76.8648 33.9655 76.8648C33.6335 76.8648 33.3608 76.9705 33.1237 77.1819Z" fill="white"/>
<path d="M40.5926 76.7944C40.8415 76.9353 41.0431 77.1349 41.1853 77.3932C41.3276 77.6516 41.3987 77.9451 41.3987 78.2739C41.3987 78.6144 41.3276 78.908 41.1735 79.1663C41.0312 79.4246 40.8178 79.6242 40.557 79.7769C40.2962 79.9178 39.988 79.9883 39.6442 79.9883C39.0633 79.9883 38.6128 79.7886 38.2927 79.3894C37.9726 78.9902 37.8184 78.4265 37.8184 77.722C37.8184 76.9822 37.9607 76.4186 38.2452 76.0194C38.5298 75.6201 38.9803 75.3618 39.5849 75.2209L41.1498 74.8686L41.2328 75.2914L39.7627 75.6319C39.2648 75.7376 38.8973 75.9372 38.6602 76.219C38.4231 76.5008 38.2927 76.9118 38.2808 77.4519C38.4231 77.1819 38.6246 76.9705 38.8736 76.8179C39.1225 76.6652 39.4189 76.5948 39.739 76.5948C40.0591 76.583 40.3436 76.6535 40.5926 76.7944ZM40.3081 79.4364C40.4977 79.319 40.6519 79.1663 40.7586 78.9667C40.8653 78.7671 40.9245 78.5322 40.9245 78.2856C40.9245 78.0273 40.8771 77.8042 40.7704 77.6163C40.6637 77.4167 40.5096 77.2758 40.3199 77.1701C40.1302 77.0644 39.905 77.0057 39.656 77.0057C39.4071 77.0057 39.1818 77.0644 38.9921 77.1701C38.8024 77.2758 38.6483 77.4285 38.5416 77.6163C38.4349 77.8042 38.3756 78.0273 38.3756 78.2856C38.3756 78.544 38.4349 78.7671 38.5416 78.9667C38.6483 79.1663 38.8024 79.319 38.9921 79.4364C39.1818 79.5421 39.4071 79.6008 39.6442 79.6008C39.905 79.6008 40.1184 79.5421 40.3081 79.4364Z" fill="white"/>
<path d="M46.7929 78.3678H43.8765C43.9002 78.7318 44.0425 79.0137 44.2914 79.2368C44.5404 79.4599 44.8605 79.5656 45.2517 79.5656C45.4651 79.5656 45.6667 79.5303 45.8445 79.4481C46.0223 79.3659 46.1883 79.2602 46.3187 79.1076L46.5795 79.4129C46.4254 79.6008 46.2357 79.7417 45.9986 79.8356C45.7615 79.9296 45.5125 79.9765 45.228 79.9765C44.8724 79.9765 44.5523 79.9061 44.2796 79.7534C44.0069 79.6008 43.7817 79.3894 43.6275 79.1193C43.4734 78.8493 43.3904 78.544 43.3904 78.2152C43.3904 77.8864 43.4616 77.5811 43.6157 77.311C43.7579 77.041 43.9713 76.8296 44.2203 76.6887C44.4811 76.536 44.7657 76.4656 45.0976 76.4656C45.4177 76.4656 45.7141 76.536 45.963 76.6887C46.212 76.8413 46.4254 77.041 46.5677 77.311C46.7099 77.5811 46.7929 77.8747 46.7929 78.2269V78.3678ZM44.2677 77.1819C44.0425 77.3932 43.9121 77.675 43.8765 78.0156H46.3543C46.3187 77.675 46.1883 77.3932 45.963 77.1819C45.7378 76.9705 45.4533 76.8648 45.1095 76.8648C44.7775 76.8648 44.493 76.9705 44.2677 77.1819Z" fill="white"/>
<path d="M51.95 76.4891V79.953H51.4758V76.9118H49.8042L49.7567 77.769C49.7212 78.4853 49.6382 79.0371 49.5078 79.4246C49.3774 79.8121 49.1403 80 48.7965 80C48.7016 80 48.5949 79.9883 48.4527 79.953L48.4882 79.5538C48.5712 79.5773 48.6186 79.5773 48.6542 79.5773C48.832 79.5773 48.9743 79.4951 49.0691 79.3307C49.164 79.1663 49.2232 78.9549 49.2588 78.7084C49.2944 78.4618 49.3181 78.1447 49.3418 77.7338L49.4011 76.5008H51.95V76.4891Z" fill="white"/>
<path d="M57.1189 78.0038C57.3441 78.1917 57.4627 78.4618 57.4627 78.814C57.4627 79.1781 57.3441 79.4599 57.0952 79.6595C56.8462 79.8591 56.4906 79.953 56.0282 79.953L54.6174 79.9413V76.4773H55.0916V77.6868L56.123 77.6985C56.5617 77.722 56.8936 77.8159 57.1189 78.0038ZM56.7395 79.4129C56.9055 79.2837 56.9885 79.0841 56.9885 78.8258C56.9885 78.5675 56.9055 78.3796 56.7395 78.2622C56.5735 78.1447 56.3364 78.0743 56.0045 78.0743L55.0916 78.0625V79.6008L56.0045 79.6125C56.3246 79.6125 56.5735 79.5421 56.7395 79.4129Z" fill="white"/>
<path d="M59.6915 76.4891H60.1657V78.0156H62.3589V76.4891H62.8331V79.953H62.3589V78.4265H60.1657V79.953H59.6915V76.4891Z" fill="white"/>
<path d="M67.9665 78.0038C68.1917 78.1917 68.3103 78.4618 68.3103 78.814C68.3103 79.1781 68.1799 79.4599 67.9428 79.6595C67.7057 79.8591 67.3382 79.953 66.8758 79.953L65.4887 79.9413V76.4773H65.9629V77.6868L66.9588 77.6985C67.3974 77.722 67.7412 77.8159 67.9665 78.0038ZM67.5871 79.4129C67.7531 79.2837 67.8361 79.0841 67.8361 78.8258C67.8361 78.5675 67.7531 78.3796 67.5871 78.2622C67.4211 78.1447 67.1722 78.0743 66.8521 78.0743L65.9629 78.0625V79.6008L66.8521 79.6125C67.1722 79.6125 67.4211 79.5421 67.5871 79.4129ZM68.8912 76.4891H69.3654V79.953H68.8912V76.4891Z" fill="white"/>
<path d="M74.2142 79.953L73.0998 78.5087L71.9854 79.953H71.4519L72.839 78.1799L71.5231 76.5008H72.0566L73.0998 77.8512L74.1431 76.5008H74.6647L73.3488 78.1799L74.7477 79.953H74.2142Z" fill="white"/>
<path d="M80.462 79.7652C80.1893 79.6125 79.9759 79.4011 79.8218 79.1311C79.6677 78.861 79.5847 78.5557 79.5847 78.2152C79.5847 77.8746 79.6677 77.5811 79.8218 77.311C79.9759 77.041 80.1893 76.8296 80.462 76.6887C80.7347 76.5478 81.0429 76.4656 81.3867 76.4656C81.6831 76.4656 81.9557 76.5243 82.1928 76.6417C82.43 76.7591 82.6196 76.9235 82.7501 77.1466L82.3944 77.3815C82.2759 77.2054 82.1336 77.0879 81.9557 76.994C81.7779 76.9118 81.5882 76.8648 81.3748 76.8648C81.1259 76.8648 80.9006 76.9235 80.6991 77.0292C80.4975 77.1349 80.3434 77.2993 80.2249 77.5107C80.1063 77.722 80.0589 77.9568 80.0589 78.2152C80.0589 78.4852 80.1182 78.7201 80.2249 78.9197C80.3316 79.1193 80.4975 79.2837 80.6991 79.3894C80.9006 79.5068 81.1259 79.5538 81.3748 79.5538C81.5764 79.5538 81.7779 79.5068 81.9557 79.4246C82.1336 79.3424 82.2759 79.2133 82.3944 79.0489L82.7501 79.2837C82.6078 79.5068 82.43 79.6712 82.181 79.7887C81.9439 79.9061 81.6712 79.9648 81.3748 79.9648C81.0429 79.9883 80.7228 79.9061 80.462 79.7652Z" fill="white"/>
<path d="M87.2314 76.8061C87.4803 77.0292 87.5989 77.3697 87.5989 77.8042V79.953H87.1484V79.4129C87.0417 79.589 86.8876 79.7299 86.6742 79.8356C86.4726 79.9413 86.2237 79.9883 85.9391 79.9883C85.5479 79.9883 85.2397 79.8943 85.0144 79.7065C84.7892 79.5186 84.6706 79.2837 84.6706 78.9784C84.6706 78.6849 84.7773 78.45 84.9907 78.2739C85.2041 78.0978 85.5479 78.0038 86.0221 78.0038H87.1247V77.7924C87.1247 77.4989 87.0417 77.2641 86.8757 77.1114C86.7097 76.9588 86.4608 76.8766 86.1407 76.8766C85.9154 76.8766 85.702 76.9118 85.5005 76.9823C85.299 77.0527 85.1211 77.1584 84.9789 77.2758L84.7655 76.9235C84.9433 76.7709 85.1567 76.6652 85.4056 76.583C85.6546 76.5008 85.9154 76.4656 86.1881 76.4656C86.6386 76.4656 86.9943 76.583 87.2314 76.8061ZM86.7097 79.4364C86.8994 79.319 87.0417 79.1428 87.1365 78.908V78.3443H86.0458C85.4531 78.3443 85.1448 78.5557 85.1448 78.9667C85.1448 79.1663 85.2278 79.3307 85.3819 79.4481C85.5361 79.5655 85.7495 79.6243 86.034 79.6243C86.2829 79.6125 86.5201 79.5538 86.7097 79.4364Z" fill="white"/>
<path d="M93.0405 76.4891V79.953H92.5662V76.9118H90.8947L90.8472 77.769C90.8117 78.4853 90.7287 79.0371 90.5983 79.4246C90.4679 79.8121 90.2308 80 89.8869 80C89.7921 80 89.6854 79.9883 89.5432 79.953L89.5787 79.5538C89.6617 79.5773 89.7091 79.5773 89.7447 79.5773C89.9225 79.5773 90.0648 79.4951 90.1596 79.3307C90.2545 79.1663 90.3137 78.9549 90.3493 78.7084C90.3849 78.4618 90.4086 78.1447 90.4323 77.7338L90.4916 76.5008H93.0405V76.4891Z" fill="white"/>
<path d="M96.2414 79.7534C95.9687 79.6008 95.7553 79.3894 95.6012 79.1193C95.4471 78.8493 95.3641 78.544 95.3641 78.2152C95.3641 77.8864 95.4471 77.5811 95.6012 77.311C95.7553 77.041 95.9687 76.8296 96.2414 76.6887C96.5141 76.5478 96.8104 76.4656 97.1543 76.4656C97.4862 76.4656 97.7944 76.536 98.0671 76.6887C98.3398 76.8413 98.5532 77.041 98.7073 77.311C98.8614 77.5811 98.9325 77.8864 98.9325 78.2152C98.9325 78.544 98.8614 78.8493 98.7073 79.1193C98.5532 79.3894 98.3398 79.6008 98.0671 79.7534C97.7944 79.9061 97.4981 79.9765 97.1543 79.9765C96.8104 79.9883 96.5141 79.9061 96.2414 79.7534ZM97.8182 79.4012C98.0197 79.2955 98.1738 79.1311 98.2805 78.9197C98.3872 78.7201 98.4465 78.4735 98.4465 78.2152C98.4465 77.9568 98.3872 77.722 98.2805 77.5107C98.1738 77.311 98.0197 77.1466 97.8182 77.0292C97.6166 76.9118 97.4032 76.8648 97.1543 76.8648C96.9053 76.8648 96.68 76.9235 96.4904 77.0292C96.2888 77.1349 96.1347 77.2993 96.028 77.5107C95.9095 77.722 95.862 77.9568 95.862 78.2152C95.862 78.4735 95.9213 78.7084 96.028 78.9197C96.1347 79.1311 96.3007 79.2837 96.4904 79.4012C96.6919 79.5186 96.9053 79.5656 97.1543 79.5656C97.4032 79.5656 97.6166 79.5186 97.8182 79.4012Z" fill="white"/>
<path d="M101.256 76.4891H101.73V78.0156H103.924V76.4891H104.398V79.953H103.924V78.4265H101.73V79.953H101.256V76.4891Z" fill="white"/>
<path d="M107.599 79.7534C107.326 79.6008 107.113 79.3894 106.959 79.1193C106.804 78.8493 106.721 78.544 106.721 78.2152C106.721 77.8864 106.804 77.5811 106.959 77.311C107.113 77.041 107.326 76.8296 107.599 76.6887C107.871 76.5478 108.168 76.4656 108.512 76.4656C108.844 76.4656 109.152 76.536 109.424 76.6887C109.697 76.8413 109.911 77.041 110.065 77.311C110.219 77.5811 110.29 77.8864 110.29 78.2152C110.29 78.544 110.219 78.8493 110.065 79.1193C109.911 79.3894 109.697 79.6008 109.424 79.7534C109.152 79.9061 108.855 79.9765 108.512 79.9765C108.168 79.9883 107.871 79.9061 107.599 79.7534ZM109.176 79.4012C109.377 79.2955 109.531 79.1311 109.638 78.9197C109.745 78.7201 109.804 78.4735 109.804 78.2152C109.804 77.9568 109.745 77.722 109.638 77.5107C109.531 77.311 109.377 77.1466 109.176 77.0292C108.974 76.9118 108.761 76.8648 108.512 76.8648C108.263 76.8648 108.037 76.9235 107.848 77.0292C107.646 77.1349 107.492 77.2993 107.385 77.5107C107.267 77.722 107.219 77.9568 107.219 78.2152C107.219 78.4735 107.279 78.7084 107.385 78.9197C107.492 79.1311 107.658 79.2837 107.848 79.4012C108.049 79.5186 108.263 79.5656 108.512 79.5656C108.761 79.5656 108.974 79.5186 109.176 79.4012Z" fill="white"/>
<path d="M115.554 79.0137C115.554 79.319 115.435 79.5538 115.21 79.7065C114.985 79.8708 114.653 79.953 114.202 79.953H112.614V76.4891H114.155C114.558 76.4891 114.866 76.5713 115.091 76.7239C115.317 76.8766 115.435 77.0997 115.435 77.3815C115.435 77.5694 115.388 77.7338 115.281 77.8629C115.174 77.9921 115.032 78.0978 114.842 78.1565C115.317 78.2739 115.554 78.5557 115.554 79.0137ZM113.076 78.0273H114.119C114.392 78.0273 114.593 77.9803 114.736 77.8747C114.878 77.769 114.949 77.6281 114.949 77.4284C114.949 77.2406 114.878 77.0879 114.736 76.994C114.593 76.9 114.38 76.8531 114.119 76.8531H113.076V78.0273ZM114.866 79.4364C115.02 79.3424 115.091 79.1898 115.091 78.9784C115.091 78.7671 115.02 78.6262 114.89 78.5205C114.748 78.4266 114.534 78.3678 114.238 78.3678H113.088V79.5773H114.19C114.487 79.5773 114.712 79.5303 114.866 79.4364Z" fill="white"/>
</svg>
