<svg width="266" height="58" viewBox="0 0 266 58" fill="none" xmlns="http://www.w3.org/2000/svg">
<path d="M3.02333 26.679V1.19966L0 0.182579H5.23166L15.2218 21.0981L25.7903 0.182579H30.9957L27.9723 1.19966V27.2006L30.9957 28.2176H22.136L25.1593 27.2006V2.92089L13.9862 25.036L3.68057 3.44247V26.679L6.7039 28.2176H0.0262954L3.02333 26.679Z" fill="#131F2E"/>
<path d="M37.4104 28.2176L40.0131 26.679L50.0032 0.182579H51.896L62.0702 27.1223L64.8569 28.2176H56.9437L59.0994 27.2006L55.7606 18.3597H43.9039L40.7492 26.679L42.642 28.2176H37.4104ZM49.7403 2.66008L44.088 17.6817H55.4189L49.7403 2.66008Z" fill="#131F2E"/>
<path d="M73.1645 0.834549C72.0866 0.834549 71.1139 0.912794 70.2463 1.04319C69.3787 1.17358 68.6163 1.46045 67.9328 1.85164C67.2493 2.24283 66.6709 2.81656 66.1451 3.5207C65.6193 4.25091 65.1724 5.18979 64.8043 6.3112L65.4879 0.182579H89.2801L89.9636 6.3112C89.5956 5.16371 89.1486 4.22484 88.6228 3.5207C88.097 2.79048 87.5187 2.24283 86.8351 1.85164C86.1516 1.46045 85.3892 1.19966 84.548 1.04319C83.6804 0.912794 82.7077 0.834549 81.6035 0.834549H78.8168V27.2006L81.7875 28.2176H72.9804L76.0038 27.2006V0.834549H73.1645Z" fill="#131F2E"/>
<path d="M98.6656 27.2006V1.19966L95.6422 0.182579H115.438L116.122 6.3112C115.754 5.16371 115.307 4.25091 114.807 3.5207C114.308 2.81656 113.703 2.24283 113.046 1.85164C112.389 1.46045 111.6 1.17358 110.759 1.04319C109.918 0.912794 108.919 0.834549 107.814 0.834549H101.479V13.6916H110.102L112.126 10.7446V17.3687L110.102 14.3696H101.479V27.5135H108.603C109.707 27.5135 110.68 27.4353 111.548 27.3049C112.415 27.1745 113.178 26.8876 113.835 26.4964C114.518 26.1052 115.097 25.5315 115.622 24.8274C116.148 24.1232 116.595 23.1844 116.963 22.0369L116.28 28.1655H95.6422L98.6656 27.2006Z" fill="#131F2E"/>
<path d="M126.375 27.2006V1.19966L123.352 0.182579H138.968C140.019 0.182579 141.018 0.391192 141.912 0.78238C142.832 1.17357 143.621 1.72126 144.305 2.39932C144.988 3.07738 145.514 3.85972 145.935 4.77249C146.329 5.68526 146.539 6.65021 146.539 7.69338C146.539 8.73654 146.329 9.72754 145.935 10.6142C145.54 11.527 144.988 12.3094 144.305 12.9874C143.621 13.6655 142.832 14.1871 141.912 14.5783C140.992 14.9695 140.019 15.152 138.968 15.152H136.286C138.127 15.804 139.572 16.9515 140.65 18.5944L146.119 27.0441L149.142 28.1916H141.465L143.043 27.4874L136.102 16.7167C135.76 16.1952 135.392 15.804 135.051 15.5432C134.709 15.2824 134.183 15.152 133.5 15.152H129.162V27.1745L132.132 28.1916H123.325L126.375 27.2006ZM143.753 7.71945C143.753 6.72844 143.595 5.78959 143.253 4.95506C142.938 4.09445 142.464 3.39032 141.86 2.76442C141.255 2.1646 140.545 1.66908 139.704 1.35613C138.863 1.0171 137.943 0.86062 136.943 0.86062H129.214V14.5783H136.943C137.943 14.5783 138.863 14.4218 139.704 14.0828C140.545 13.7437 141.255 13.2743 141.86 12.6745C142.464 12.0746 142.938 11.3445 143.253 10.5099C143.568 9.62323 143.753 8.71045 143.753 7.71945Z" fill="#131F2E"/>
<path d="M155.215 28.2176L157.818 26.679L167.808 0.182579H169.701L179.875 27.1223L182.661 28.2176H174.748L176.904 27.2006L173.539 18.3597H161.682L158.527 26.679L160.42 28.2176H155.215ZM167.571 2.66008L161.919 17.6817H173.25L167.571 2.66008Z" fill="#131F2E"/>
<path d="M206.506 21.6718C206.506 20.8633 206.27 20.1331 205.796 19.5333C205.323 18.9335 204.692 18.3858 203.904 17.9164C203.115 17.4209 202.221 16.9775 201.222 16.5603C200.223 16.143 199.198 15.6996 198.146 15.2824C197.094 14.8651 196.069 14.3696 195.07 13.8741C194.071 13.3786 193.177 12.8049 192.389 12.1529C191.6 11.5009 190.969 10.7707 190.496 9.91009C190.023 9.07555 189.786 8.05849 189.786 6.91101C189.786 4.72036 190.469 3.02519 191.863 1.79947C193.256 0.57375 195.412 0 198.356 0C199.723 0 200.906 0.0782556 201.984 0.26081C203.036 0.443364 203.93 0.625907 204.666 0.86062C205.533 1.12141 206.296 1.40829 206.953 1.72124L205.56 7.51082C205.349 5.47664 204.613 3.80759 203.299 2.55579C201.984 1.30399 200.249 0.678089 198.067 0.678089C195.833 0.678089 194.15 1.14749 193.046 2.08634C191.942 3.02519 191.39 4.277 191.39 5.84175C191.39 7.04139 191.81 8.0324 192.625 8.86694C193.44 9.67539 194.492 10.4317 195.727 11.0576C196.963 11.6835 198.33 12.3094 199.776 12.857C201.222 13.4047 202.589 14.0306 203.825 14.7086C205.06 15.3867 206.112 16.1691 206.927 17.0558C207.768 17.9425 208.162 19.0378 208.162 20.3417C208.162 22.9236 207.321 24.9056 205.665 26.3139C204.009 27.6961 201.722 28.3741 198.856 28.3741C197.515 28.3741 196.253 28.2698 195.07 28.0872C193.887 27.9047 192.836 27.6961 191.968 27.4614C190.916 27.2006 189.944 26.9137 189.024 26.6008L190.417 20.8373C190.548 21.8543 190.838 22.7932 191.311 23.6277C191.784 24.4623 192.389 25.1664 193.125 25.7662C193.887 26.366 194.728 26.8355 195.701 27.1745C196.674 27.5135 197.699 27.67 198.777 27.67C199.355 27.67 200.065 27.6178 200.933 27.4874C201.8 27.357 202.642 27.0963 203.457 26.679C204.272 26.2617 204.981 25.6358 205.56 24.8535C206.217 24.0972 206.506 23.0279 206.506 21.6718Z" fill="#131F2E"/>
<path d="M232.454 21.6718C232.454 20.8633 232.218 20.1331 231.744 19.5333C231.271 18.9335 230.64 18.3858 229.852 17.9164C229.063 17.4209 228.169 16.9775 227.17 16.5603C226.171 16.143 225.146 15.6996 224.094 15.2824C223.042 14.8651 222.017 14.3696 221.018 13.8741C220.019 13.3786 219.125 12.8049 218.337 12.1529C217.548 11.5009 216.917 10.7707 216.444 9.91009C215.971 9.07555 215.734 8.05849 215.734 6.91101C215.734 4.72036 216.417 3.02519 217.811 1.79947C219.204 0.57375 221.36 0 224.304 0C225.671 0 226.855 0.0782556 227.932 0.26081C228.984 0.443364 229.878 0.625907 230.614 0.86062C231.482 1.12141 232.244 1.40829 232.901 1.72124L231.508 7.51082C231.298 5.47664 230.561 3.80759 229.247 2.55579C227.932 1.30399 226.197 0.678089 224.015 0.678089C221.781 0.678089 220.098 1.14749 218.994 2.08634C217.89 3.02519 217.338 4.277 217.338 5.84175C217.338 7.04139 217.758 8.0324 218.573 8.86694C219.388 9.67539 220.44 10.4317 221.675 11.0576C222.911 11.6835 224.278 12.3094 225.724 12.857C227.17 13.4047 228.537 14.0306 229.773 14.7086C231.008 15.3867 232.06 16.1691 232.875 17.0558C233.716 17.9425 234.111 19.0378 234.111 20.3417C234.111 22.9236 233.269 24.9056 231.613 26.3139C229.957 27.6961 227.67 28.3741 224.804 28.3741C223.463 28.3741 222.201 28.2698 221.018 28.0872C219.835 27.9047 218.784 27.6961 217.916 27.4614C216.864 27.2006 215.892 26.9137 214.972 26.6008L216.365 20.8373C216.496 21.8543 216.786 22.7932 217.259 23.6277C217.732 24.4623 218.337 25.1664 219.073 25.7662C219.835 26.366 220.676 26.8355 221.649 27.1745C222.622 27.5135 223.647 27.67 224.725 27.67C225.303 27.67 226.013 27.6178 226.881 27.4874C227.748 27.357 228.59 27.0963 229.405 26.679C230.22 26.2617 230.929 25.6358 231.508 24.8535C232.165 24.0972 232.454 23.0279 232.454 21.6718Z" fill="#131F2E"/>
<path d="M253.276 28.4785C251.514 28.4785 249.858 28.1133 248.333 27.357C246.782 26.6007 245.441 25.5837 244.285 24.3058C243.128 23.0018 242.208 21.5153 241.551 19.7941C240.893 18.0729 240.552 16.2212 240.552 14.2653C240.552 12.3094 240.893 10.4578 241.551 8.71047C242.208 6.98924 243.128 5.47664 244.285 4.17269C245.441 2.86873 246.782 1.85165 248.333 1.12143C249.884 0.365134 251.514 0 253.276 0C255.037 0 256.693 0.365134 258.218 1.12143C259.769 1.87772 261.11 2.89481 262.267 4.17269C263.424 5.47664 264.344 6.98924 265.001 8.71047C265.658 10.4317 266 12.2833 266 14.2653C266 16.2212 265.658 18.0729 265.001 19.7941C264.344 21.5153 263.424 23.0279 262.267 24.3058C261.11 25.6097 259.769 26.6268 258.218 27.357C256.693 28.1133 255.037 28.4785 253.276 28.4785ZM253.276 0.65199C251.909 0.65199 250.647 0.938879 249.437 1.5387C248.228 2.11244 247.177 2.97303 246.283 4.12051C245.389 5.26799 244.653 6.67629 244.127 8.34536C243.601 10.0405 243.338 11.9964 243.338 14.2392C243.338 16.456 243.601 18.4119 244.127 20.107C244.653 21.8022 245.363 23.2105 246.283 24.358C247.203 25.5054 248.254 26.3399 249.437 26.9398C250.647 27.5135 251.935 27.8265 253.276 27.8265C254.643 27.8265 255.905 27.5396 257.114 26.9398C258.323 26.366 259.375 25.5054 260.269 24.358C261.163 23.2105 261.899 21.8022 262.425 20.107C262.95 18.4119 263.213 16.456 263.213 14.2392C263.213 11.9964 262.95 10.0405 262.425 8.34536C261.899 6.65021 261.189 5.24191 260.269 4.12051C259.349 2.99911 258.297 2.13852 257.114 1.5387C255.931 0.938879 254.643 0.65199 253.276 0.65199Z" fill="#131F2E"/>
<path d="M264.975 39.1708H0.683592V40.214H264.975V39.1708Z" fill="#131F2E"/>
<path d="M8.17614 57.4784C7.57148 57.1394 7.09826 56.6699 6.75649 56.0701C6.41472 55.4703 6.2307 54.7922 6.2307 54.0359C6.2307 53.2796 6.41472 52.6277 6.75649 52.0279C7.09826 51.4281 7.57148 50.9587 8.17614 50.6457C8.78081 50.3067 9.46434 50.1502 10.2267 50.1502C10.884 50.1502 11.4887 50.2806 12.0144 50.5413C12.5402 50.8021 12.9609 51.1673 13.2501 51.6628L12.4614 52.1844C12.1985 51.7932 11.883 51.5324 11.4887 51.3237C11.0943 51.1412 10.6737 51.0369 10.2004 51.0369C9.64836 51.0369 9.14886 51.1673 8.70193 51.402C8.255 51.6367 7.91325 52.0018 7.65035 52.4712C7.38746 52.9406 7.2823 53.4622 7.2823 54.0359C7.2823 54.6358 7.41375 55.1574 7.65035 55.6007C7.91325 56.0441 8.255 56.4091 8.70193 56.6439C9.14886 56.9047 9.64836 57.009 10.2004 57.009C10.6737 57.009 11.0943 56.9046 11.4887 56.7221C11.883 56.5395 12.1985 56.2527 12.4614 55.8876L13.2501 56.4092C12.9346 56.9047 12.5402 57.2698 11.9882 57.5306C11.4624 57.7914 10.8577 57.9218 10.2004 57.9218C9.46433 57.9739 8.78081 57.7914 8.17614 57.4784Z" fill="#131F2E"/>
<path d="M24.8701 54.375H18.3766C18.4291 55.1834 18.7446 55.8094 19.2967 56.3049C19.8488 56.8004 20.5586 57.0351 21.4262 57.0351C21.8994 57.0351 22.3463 56.9568 22.7407 56.7743C23.135 56.5917 23.5031 56.357 23.7923 56.018L24.3707 56.696C24.0289 57.1133 23.6082 57.4263 23.0824 57.6349C22.5566 57.8435 22.0046 57.9478 21.3736 57.9478C20.5849 57.9478 19.8751 57.7914 19.2704 57.4524C18.6658 57.1133 18.1663 56.6439 17.8245 56.0441C17.4827 55.4442 17.2987 54.7662 17.2987 54.0359C17.2987 53.3057 17.4564 52.6277 17.7982 52.0279C18.1137 51.4281 18.5869 50.9587 19.1653 50.6457C19.7436 50.3067 20.3746 50.1502 21.1107 50.1502C21.8468 50.1502 22.4778 50.3067 23.0299 50.6457C23.6082 50.9847 24.0552 51.4281 24.3707 52.0279C24.6861 52.6277 24.8439 53.2797 24.8439 54.0621L24.8701 54.375ZM19.2441 51.741C18.7446 52.2104 18.4554 52.8363 18.3766 53.5926H23.8711C23.7923 52.8363 23.5031 52.2104 23.0036 51.741C22.5041 51.2716 21.8731 51.0369 21.1107 51.0369C20.3746 51.0369 19.7436 51.2716 19.2441 51.741Z" fill="#131F2E"/>
<path d="M32.3102 51.1412V57.8957H31.2586V51.1412H28.3404V50.2284H35.2546V51.1412H32.3102Z" fill="#131F2E"/>
<path d="M45.2447 53.5666C45.7442 53.9838 46.0071 54.5836 46.0071 55.366C46.0071 56.1745 45.7442 56.8004 45.1922 57.2437C44.6401 57.6871 43.8514 57.8957 42.8261 57.8957L39.6976 57.8696V50.1762H40.7492V52.8624L43.0364 52.8885C44.0091 52.9407 44.7452 53.1493 45.2447 53.5666ZM44.3772 56.696C44.7452 56.4092 44.9293 55.9658 44.9293 55.3921C44.9293 54.8183 44.7452 54.4011 44.3772 54.1403C44.0091 53.8795 43.457 53.723 42.7472 53.723L40.7229 53.697V57.1133L42.7472 57.1394C43.4833 57.1394 44.0091 56.9829 44.3772 56.696Z" fill="#131F2E"/>
<path d="M66.3817 57.8957H65.4353V51.8193L62.3068 56.9568H61.8336L58.7051 51.7932V57.8696H57.7587V50.1762H58.8103L62.0965 55.705L65.4353 50.1762H66.3817V57.8957Z" fill="#131F2E"/>
<path d="M79.0797 54.375H72.6124C72.665 55.1834 72.9805 55.8094 73.5325 56.3049C74.0846 56.8004 74.7944 57.0351 75.662 57.0351C76.1352 57.0351 76.5821 56.9568 76.9765 56.7743C77.3708 56.5917 77.7389 56.357 78.0281 56.018L78.6065 56.696C78.2647 57.1133 77.8441 57.4263 77.3183 57.6349C76.7925 57.8435 76.2404 57.9478 75.6094 57.9478C74.8207 57.9478 74.1109 57.7914 73.5062 57.4524C72.9016 57.1133 72.4021 56.6439 72.0603 56.0441C71.7186 55.4442 71.5345 54.7662 71.5345 54.0359C71.5345 53.3057 71.6923 52.6277 72.034 52.0279C72.3495 51.4281 72.8227 50.9587 73.4011 50.6457C73.9795 50.3067 74.6104 50.1502 75.3465 50.1502C76.0826 50.1502 76.7136 50.3067 77.2657 50.6457C77.8441 50.9847 78.291 51.4281 78.6065 52.0279C78.9219 52.6277 79.0797 53.2797 79.0797 54.0621V54.375ZM73.4537 51.741C72.9542 52.2104 72.665 52.8363 72.5861 53.5926H78.0807C78.0018 52.8363 77.7126 52.2104 77.2131 51.741C76.7136 51.2716 76.0827 51.0369 75.3203 51.0369C74.5841 51.0369 73.9795 51.2716 73.4537 51.741Z" fill="#131F2E"/>
<path d="M90.0162 50.8804C90.5683 51.1934 91.0152 51.6367 91.3307 52.2104C91.6462 52.7842 91.8039 53.4361 91.8039 54.1664C91.8039 54.9226 91.6462 55.5747 91.3044 56.1484C90.989 56.7222 90.5157 57.1655 89.9374 57.5045C89.359 57.8174 88.6755 57.9739 87.9131 57.9739C86.6249 57.9739 85.6258 57.5306 84.916 56.6439C84.2062 55.7572 83.8644 54.5054 83.8644 52.9406C83.8644 51.2977 84.1799 50.0459 84.8109 49.1592C85.4418 48.2725 86.4408 47.6988 87.7816 47.3858L91.2518 46.6034L91.4359 47.5423L88.176 48.2986C87.0718 48.5333 86.2568 48.9766 85.731 49.6025C85.2052 50.2284 84.916 51.1412 84.8897 52.3408C85.2052 51.741 85.6521 51.2716 86.2042 50.9326C86.7563 50.5935 87.4136 50.4371 88.1234 50.4371C88.8332 50.411 89.4641 50.5675 90.0162 50.8804ZM89.3853 56.7482C89.8059 56.4874 90.1477 56.1484 90.3843 55.705C90.6209 55.2617 90.7524 54.7401 90.7524 54.1925C90.7524 53.6187 90.6472 53.1232 90.4106 52.7059C90.174 52.2626 89.8322 51.9496 89.4116 51.7149C88.9909 51.4802 88.4914 51.3498 87.9394 51.3498C87.3873 51.3498 86.8877 51.4802 86.4671 51.7149C86.0465 51.9496 85.7047 52.2887 85.4681 52.7059C85.2315 53.1232 85.1001 53.6187 85.1001 54.1925C85.1001 54.7662 85.2315 55.2617 85.4681 55.705C85.7047 56.1484 86.0465 56.4874 86.4671 56.7482C86.8877 56.9829 87.3873 57.1133 87.9131 57.1133C88.4914 57.1133 88.9646 56.9829 89.3853 56.7482Z" fill="#131F2E"/>
<path d="M103.766 54.375H97.2985C97.3511 55.1834 97.6666 55.8094 98.2187 56.3049C98.7708 56.8004 99.4806 57.0351 100.348 57.0351C100.821 57.0351 101.268 56.9568 101.663 56.7743C102.057 56.5917 102.425 56.357 102.714 56.018L103.293 56.696C102.951 57.1133 102.53 57.4263 102.004 57.6349C101.479 57.8435 100.927 57.9478 100.296 57.9478C99.5069 57.9478 98.797 57.7914 98.1924 57.4524C97.5877 57.1133 97.0882 56.6439 96.7464 56.0441C96.4046 55.4442 96.2206 54.7662 96.2206 54.0359C96.2206 53.3057 96.3784 52.6277 96.7201 52.0279C97.0356 51.4281 97.5088 50.9587 98.0609 50.6457C98.6393 50.3067 99.2702 50.1502 100.006 50.1502C100.716 50.1502 101.373 50.3067 101.925 50.6457C102.478 50.9847 102.951 51.4281 103.266 52.0279C103.582 52.6277 103.766 53.2797 103.766 54.0621V54.375ZM98.1661 51.741C97.6666 52.2104 97.3774 52.8363 97.2985 53.5926H102.793C102.714 52.8363 102.425 52.2104 101.925 51.741C101.426 51.2716 100.795 51.0369 100.033 51.0369C99.2965 51.0369 98.6656 51.2716 98.1661 51.741Z" fill="#131F2E"/>
<path d="M115.202 50.2023V57.8957H114.15V51.1412H110.443L110.338 53.045C110.259 54.6358 110.075 55.8615 109.786 56.7221C109.497 57.5827 108.971 58 108.209 58C107.998 58 107.762 57.9739 107.446 57.8957L107.525 57.009C107.709 57.0611 107.814 57.0611 107.893 57.0611C108.288 57.0611 108.603 56.8786 108.813 56.5135C109.024 56.1484 109.155 55.6789 109.234 55.1313C109.313 54.5836 109.366 53.8795 109.418 52.9668L109.55 50.2284H115.202V50.2023Z" fill="#131F2E"/>
<path d="M126.664 53.5666C127.164 53.9838 127.427 54.5836 127.427 55.366C127.427 56.1745 127.164 56.8004 126.612 57.2437C126.06 57.6871 125.271 57.8957 124.246 57.8957L121.117 57.8696V50.1762H122.169V52.8624L124.456 52.8885C125.429 52.9407 126.165 53.1493 126.664 53.5666ZM125.823 56.696C126.191 56.4092 126.375 55.9658 126.375 55.3921C126.375 54.8183 126.191 54.4011 125.823 54.1403C125.455 53.8795 124.929 53.723 124.193 53.723L122.169 53.697V57.1133L124.193 57.1394C124.903 57.1394 125.455 56.9829 125.823 56.696Z" fill="#131F2E"/>
<path d="M132.369 50.2023H133.421V53.5926H138.284V50.2023H139.336V57.8957H138.284V54.5054H133.421V57.8957H132.369V50.2023Z" fill="#131F2E"/>
<path d="M150.719 53.5666C151.219 53.9838 151.482 54.5836 151.482 55.366C151.482 56.1745 151.193 56.8004 150.667 57.2437C150.141 57.6871 149.326 57.8957 148.301 57.8957L145.225 57.8696V50.1762H146.276V52.8624L148.485 52.8885C149.457 52.9407 150.22 53.1493 150.719 53.5666ZM149.878 56.696C150.246 56.4092 150.43 55.9658 150.43 55.3921C150.43 54.8183 150.246 54.4011 149.878 54.1403C149.51 53.8795 148.958 53.723 148.248 53.723L146.276 53.697V57.1133L148.248 57.1394C148.958 57.1394 149.51 56.9829 149.878 56.696ZM152.77 50.2023H153.822V57.8957H152.77V50.2023Z" fill="#131F2E"/>
<path d="M164.574 57.8957L162.103 54.6879L159.632 57.8957H158.449L161.524 53.9577L158.606 50.2284H159.789L162.103 53.2275L164.416 50.2284H165.573L162.655 53.9577L165.757 57.8957H164.574Z" fill="#131F2E"/>
<path d="M178.429 57.4784C177.824 57.1394 177.351 56.6699 177.009 56.0701C176.667 55.4703 176.483 54.7922 176.483 54.0359C176.483 53.2796 176.667 52.6277 177.009 52.0279C177.351 51.4281 177.824 50.9587 178.429 50.6457C179.033 50.3328 179.717 50.1502 180.479 50.1502C181.137 50.1502 181.741 50.2806 182.267 50.5413C182.793 50.8021 183.214 51.1673 183.503 51.6628L182.714 52.1844C182.451 51.7932 182.136 51.5324 181.741 51.3237C181.347 51.1412 180.926 51.0369 180.453 51.0369C179.901 51.0369 179.401 51.1673 178.955 51.402C178.508 51.6367 178.166 52.0018 177.903 52.4712C177.64 52.9406 177.535 53.4622 177.535 54.0359C177.535 54.6358 177.666 55.1574 177.903 55.6007C178.14 56.0441 178.508 56.4091 178.955 56.6439C179.401 56.9047 179.901 57.009 180.453 57.009C180.9 57.009 181.347 56.9046 181.741 56.7221C182.136 56.5395 182.451 56.2527 182.714 55.8876L183.503 56.4092C183.187 56.9047 182.793 57.2698 182.241 57.5306C181.715 57.7914 181.11 57.9218 180.453 57.9218C179.717 57.9739 179.007 57.7914 178.429 57.4784Z" fill="#131F2E"/>
<path d="M193.44 50.9065C193.992 51.402 194.255 52.1583 194.255 53.1232V57.8957H193.256V56.696C193.02 57.0872 192.678 57.4002 192.205 57.6349C191.758 57.8696 191.206 57.9739 190.575 57.9739C189.707 57.9739 189.024 57.7653 188.524 57.348C188.025 56.9308 187.762 56.4092 187.762 55.7311C187.762 55.0791 187.998 54.5575 188.471 54.1664C188.945 53.7752 189.707 53.5666 190.759 53.5666H193.204V53.0971C193.204 52.4451 193.02 51.9236 192.652 51.5845C192.284 51.2455 191.731 51.0629 191.022 51.0629C190.522 51.0629 190.049 51.1412 189.602 51.2977C189.155 51.4541 188.761 51.6889 188.445 51.9496L187.972 51.1673C188.366 50.8283 188.84 50.5935 189.392 50.411C189.944 50.2284 190.522 50.1502 191.127 50.1502C192.126 50.1502 192.914 50.411 193.44 50.9065ZM192.284 56.7482C192.704 56.4874 193.02 56.0962 193.23 55.5746V54.3228H190.811C189.497 54.3228 188.813 54.7923 188.813 55.705C188.813 56.1484 188.997 56.5135 189.339 56.7743C189.681 57.0351 190.154 57.1655 190.785 57.1655C191.337 57.1394 191.863 57.009 192.284 56.7482Z" fill="#131F2E"/>
<path d="M206.322 50.2023V57.8957H205.271V51.1412H201.564L201.459 53.045C201.38 54.6358 201.196 55.8615 200.907 56.7221C200.617 57.5827 200.092 58 199.329 58C199.119 58 198.882 57.9739 198.567 57.8957L198.646 57.009C198.83 57.0611 198.935 57.0611 199.014 57.0611C199.408 57.0611 199.723 56.8786 199.934 56.5135C200.144 56.1484 200.276 55.6789 200.354 55.1313C200.433 54.5836 200.486 53.8795 200.538 52.9668L200.67 50.2284H206.322V50.2023Z" fill="#131F2E"/>
<path d="M213.42 57.4524C212.816 57.1133 212.343 56.6439 212.001 56.0441C211.659 55.4442 211.475 54.7662 211.475 54.0359C211.475 53.3057 211.659 52.6277 212.001 52.0279C212.343 51.4281 212.816 50.9587 213.42 50.6457C214.025 50.3328 214.682 50.1502 215.445 50.1502C216.181 50.1502 216.864 50.3067 217.469 50.6457C218.074 50.9847 218.547 51.4281 218.889 52.0279C219.231 52.6277 219.388 53.3057 219.388 54.0359C219.388 54.7662 219.231 55.4442 218.889 56.0441C218.547 56.6439 218.074 57.1133 217.469 57.4524C216.864 57.7914 216.207 57.9478 215.445 57.9478C214.682 57.9739 214.025 57.7914 213.42 57.4524ZM216.917 56.67C217.364 56.4353 217.706 56.0701 217.942 55.6007C218.179 55.1574 218.31 54.6097 218.31 54.0359C218.31 53.4622 218.179 52.9406 217.942 52.4712C217.706 52.0279 217.364 51.6628 216.917 51.402C216.47 51.1412 215.997 51.0369 215.445 51.0369C214.893 51.0369 214.393 51.1673 213.973 51.402C213.526 51.6367 213.184 52.0018 212.947 52.4712C212.684 52.9406 212.579 53.4622 212.579 54.0359C212.579 54.6097 212.711 55.1313 212.947 55.6007C213.184 56.0701 213.552 56.4092 213.973 56.67C214.42 56.9308 214.893 57.0351 215.445 57.0351C215.997 57.0351 216.47 56.9308 216.917 56.67Z" fill="#131F2E"/>
<path d="M224.541 50.2023H225.593V53.5926H230.456V50.2023H231.508V57.8957H230.456V54.5054H225.593V57.8957H224.541V50.2023Z" fill="#131F2E"/>
<path d="M238.606 57.4524C238.001 57.1133 237.528 56.6439 237.186 56.0441C236.845 55.4442 236.661 54.7662 236.661 54.0359C236.661 53.3057 236.845 52.6277 237.186 52.0279C237.528 51.4281 238.001 50.9587 238.606 50.6457C239.211 50.3328 239.868 50.1502 240.63 50.1502C241.367 50.1502 242.05 50.3067 242.655 50.6457C243.259 50.9847 243.733 51.4281 244.074 52.0279C244.416 52.6277 244.574 53.3057 244.574 54.0359C244.574 54.7662 244.416 55.4442 244.074 56.0441C243.733 56.6439 243.259 57.1133 242.655 57.4524C242.05 57.7914 241.393 57.9478 240.63 57.9478C239.868 57.9739 239.211 57.7914 238.606 57.4524ZM242.103 56.67C242.55 56.4353 242.891 56.0701 243.128 55.6007C243.365 55.1574 243.496 54.6097 243.496 54.0359C243.496 53.4622 243.365 52.9406 243.128 52.4712C242.891 52.0279 242.55 51.6628 242.103 51.402C241.656 51.1412 241.182 51.0369 240.63 51.0369C240.078 51.0369 239.579 51.1673 239.158 51.402C238.711 51.6367 238.369 52.0018 238.133 52.4712C237.87 52.9406 237.765 53.4622 237.765 54.0359C237.765 54.6097 237.896 55.1313 238.133 55.6007C238.369 56.0701 238.738 56.4092 239.158 56.67C239.605 56.9308 240.078 57.0351 240.63 57.0351C241.182 57.0351 241.656 56.9308 242.103 56.67Z" fill="#131F2E"/>
<path d="M256.246 55.8093C256.246 56.4874 255.984 57.009 255.484 57.348C254.985 57.7131 254.248 57.8957 253.249 57.8957H249.727V50.2023H253.144C254.038 50.2023 254.722 50.3849 255.221 50.7239C255.721 51.063 255.984 51.5585 255.984 52.1844C255.984 52.6016 255.878 52.9668 255.642 53.2536C255.405 53.5405 255.09 53.7752 254.669 53.9056C255.721 54.1664 256.246 54.7923 256.246 55.8093ZM250.752 53.6187H253.065C253.67 53.6187 254.117 53.5144 254.433 53.2797C254.748 53.045 254.906 52.732 254.906 52.2887C254.906 51.8714 254.748 51.5324 254.433 51.3237C254.117 51.1151 253.644 51.0108 253.065 51.0108H250.752V53.6187ZM254.722 56.7482C255.064 56.5396 255.221 56.2005 255.221 55.7311C255.221 55.2617 255.063 54.9488 254.774 54.714C254.459 54.5054 253.986 54.375 253.328 54.375H250.778V57.0611H253.223C253.88 57.0611 254.38 56.9569 254.722 56.7482Z" fill="#131F2E"/>
</svg>
